HIERARCHY
ROOT ui
{
	 OFFSET 0 0 0
	 CHANNELS 3 XPosition YPosition Z Position
	 EndSite
	 {
	 OFFSET 0 -1 0
	 }
}
ROOT li
{
	 OFFSET 0 0 0
	 CHANNELS 3 XPosition YPosition Z Position
	 EndSite
	 {
	 OFFSET 0 -1 0
	 }
}
ROOT ul
{
	 OFFSET 0 0 0
	 CHANNELS 3 XPosition YPosition Z Position
	 EndSite
	 {
	 OFFSET 0 -1 0
	 }
}
ROOT ll
{
	 OFFSET 0 0 0
	 CHANNELS 3 XPosition YPosition Z Position
	 EndSite
	 {
	 OFFSET 0 -1 0
	 }
}
ROOT tt
{
	 OFFSET 0 0 0
	 CHANNELS 3 XPosition YPosition Z Position
	 EndSite
	 {
	 OFFSET 0 -1 0
	 }
}
ROOT tb
{
	 OFFSET 0 0 0
	 CHANNELS 3 XPosition YPosition Z Position
	 EndSite
	 {
	 OFFSET 0 -1 0
	 }
}
ROOT td
{
	 OFFSET 0 0 0
	 CHANNELS 3 XPosition YPosition Z Position
	 EndSite
	 {
	 OFFSET 0 -1 0
	 }
}
ROOT v
{
	 OFFSET 0 0 0
	 CHANNELS 3 XPosition YPosition Z Position
	 EndSite
	 {
	 OFFSET 0 -1 0
	 }
}
ROOT bn
{
	 OFFSET 0 0 0
	 CHANNELS 3 XPosition YPosition Z Position
	 EndSite
	 {
	 OFFSET 0 -1 0
	 }
}
MOTION
Frames: 21
Frame Time: 0.002
-0.009942060470581054	-0.00631830883026123	0		0.43944512939453123	-2.44576318359375	0		-0.9715333862304687	-0.051030448913574215	0		-0.5238197021484375	-2.888483154296875	0		1.840544189453125	-0.6570914916992188	0		3.331107666015625	0.06345611190795898	0		4.511734375	-0.06041527557373047	0		5.88882958984375	0.3654443054199219	0		-0.30132086181640627	5.839505859375	0		
-0.01599997138977051	0.006647624015808105	0		0.4651146240234375	-2.451183349609375	0		-0.9027034301757813	-0.04792325210571289	0		-0.4833265380859375	-2.9080556640625	0		1.8534927978515625	-0.6423936157226563	0		3.36680126953125	0.05484912109375	0		4.51923876953125	-0.08472005462646484	0		5.88553369140625	0.3572348022460938	0		-0.2663236389160156	5.8449970703125	0		
-0.00832083797454834	-0.0065588288307189945	0		0.4160035400390625	-2.44073193359375	0		-0.9777605590820313	-0.03812884521484375	0		-0.5127342529296876	-2.921813232421875	0		1.850709716796875	-0.6085234375	0		3.326956787109375	0.0821158676147461	0		4.50625927734375	-0.06880162048339844	0		5.90845703125	0.3636929626464844	0		-0.26533526611328123	5.84487890625	0		
-0.014308599472045899	0.006391567230224609	0		0.4747746276855469	-2.442561279296875	0		-0.9707146606445313	-0.022304033279418944	0		-0.49091546630859373	-2.918178466796875	0		1.843023681640625	-0.5686055297851562	0		3.3616259765625	0.06548619842529296	0		4.5191025390625	-0.07020669555664062	0		5.9044326171875	0.37244720458984376	0		-0.2643063354492188	5.8447548828125	0		
-0.013440006256103516	0.00625669002532959	0		0.4506263732910156	-2.437415771484375	0		-0.9817276000976562	-0.012266950607299805	0		-0.49824603271484375	-2.92720263671875	0		1.858110107421875	-0.5489668579101562	0		3.37073291015625	0.08514771270751953	0		4.5079814453125	-0.06934358978271485	0		5.8963251953125	0.37323068237304685	0		-0.2642401123046875	5.8456396484375	0		
-0.005728649139404297	-0.006961881160736084	0		0.5033097229003907	-2.446185791015625	0		-0.9187473754882812	-0.003107601881027222	0		-0.4587212829589844	-2.947784423828125	0		1.852326416015625	-0.518086669921875	0		3.358448486328125	0.07205021667480468	0		4.51186865234375	-0.06767156982421875	0		5.9020966796875	0.3638318176269531	0		-0.2972413024902344	5.8399169921875	0		
-0.014766348838806152	0.0020205609798431396	0		0.4501487121582031	-2.439697265625	0		-0.9878402709960937	0.0016246429681777955	0		-0.4440250244140625	-2.952070556640625	0		1.8585428466796876	-0.486353759765625	0		3.328462890625	0.08515776824951173	0		4.5056142578125	-0.07689153289794921	0		5.90296484375	0.36347607421875	0		-0.2961697082519531	5.83979150390625	0		
0.012067617416381836	0.0015757989883422852	0		0.4549352111816406	-2.4358974609375	0		-0.99383642578125	0.015612343788146972	0		-0.5043738708496094	-2.957456787109375	0		1.8366121826171875	-0.4652881164550781	0		3.37810693359375	0.06830625915527344	0		4.516421875	-0.07932413482666016	0		5.90791064453125	0.37105908203125	0		-0.24592620849609376	5.85408154296875	0		
0.006891077041625977	0.0025169060230255127	0		0.4337657470703125	-2.425783447265625	0		-0.992772705078125	0.03652210998535156	0		-0.457834228515625	-2.970117431640625	0		1.8927960205078125	-0.4331581726074219	0		3.352246826171875	0.09535661315917969	0		4.5172294921875	-0.07964369964599609	0		5.90873681640625	0.37068121337890625	0		-0.25997698974609373	5.84514208984375	0		
-0.009291689872741699	0.005596162796020508	0		0.48733914184570315	-2.434565673828125	0		-0.9919913330078125	0.03644044876098633	0		-0.486061767578125	-2.959873779296875	0		1.852005615234375	-0.39586260986328126	0		3.355729248046875	0.07005056762695312	0		4.52002978515625	-0.07799061584472657	0		5.9046416015625	0.3793572998046875	0		-0.25992947387695314	5.84604052734375	0		
-0.008549797058105468	0.005477344036102295	0		0.46100885009765624	-2.431380615234375	0		-0.986212158203125	0.039305404663085936	0		-0.4107135925292969	-2.981876708984375	0		1.8622125244140626	-0.35617742919921874	0		3.355631591796875	0.08279061126708985	0		4.51058740234375	-0.09319235229492187	0		5.9093037109375	0.3709230346679688	0		-0.25991110229492187	5.8469453125	0		
-0.001010440945625305	-0.007720054149627686	0		0.4885550537109375	-2.43484326171875	0		-0.99334228515625	0.05333353424072266	0		-0.48008868408203126	-2.976121826171875	0		1.837101806640625	-0.3390632019042969	0		3.372173828125	0.0693277587890625	0		4.5112802734375	-0.0935155029296875	0		5.90611572265625	0.3785829467773438	0		-0.29202474975585935	5.84024462890625	0		
-0.007203154087066651	0.005255214214324951	0		0.46415182495117185	-2.429671142578125	0		-0.9886426391601563	0.05722212600708008	0		-0.43472979736328127	-2.988755859375	0		1.851940673828125	-0.3224307861328125	0		3.36115576171875	0.09620406341552734	0		4.5119248046875	-0.09383712005615234	0		5.91478173828125	0.3780981140136719	0		-0.2920765686035156	5.8421611328125	0		
-0.006606322765350342	0.005150055885314942	0		0.46971923828125	-2.4228603515625	0		-0.970861083984375	0.07195405578613281	0		-0.5120601196289063	-2.970887939453125	0		1.849779296875	-0.30158837890625	0		3.362499755859375	0.07492957305908203	0		4.49462841796875	-0.08493556213378907	0		5.915591796875	0.39371279907226564	0		-0.12388690948486328	5.86702392578125	0		
0.00381276798248291	-0.005074883937835693	0		0.497110107421875	-2.426316650390625	0		-0.9122582397460938	0.07618325805664063	0		-0.40093450927734375	-2.994328857421875	0		1.860454345703125	-0.28990133666992185	0		3.38711767578125	0.08037474060058594	0		4.504080078125	-0.09235783386230469	0		5.924955078125	0.37722509765625	0		-0.25633175659179686	5.84656201171875	0		
-0.005576258182525635	0.004944851875305176	0		0.45173641967773437	-2.40587646484375	0		-0.9857496337890626	0.07803458404541015	0		-0.4803931884765625	-2.978427978515625	0		1.8710877685546874	-0.2772132568359375	0		3.3635361328125	0.07441365051269531	0		4.49339111328125	-0.1065296401977539	0		5.92055859375	0.3849127197265625	0		-0.25656494140625	5.8474833984375	0		
-0.008193894386291504	8.784499764442444E-4	0		0.48689630126953126	-2.419432861328125	0		-0.92725732421875	0.08225670623779296	0		-0.417248779296875	-2.9912890625	0		1.8545574951171875	-0.2731912841796875	0		3.35905810546875	0.08121993255615234	0		4.48891748046875	-0.09877415466308594	0		5.9202177734375	0.401553955078125	0		-0.32400198364257815	5.83723291015625	0		
0.005106632232666016	-0.005389912128448486	0		0.4441570434570313	-2.42002783203125	0		-0.9927733154296875	0.09100855255126954	0		-0.46998751831054686	-2.989720703125	0		1.8660821533203125	-0.26051797485351563	0		3.363238525390625	0.06491637420654296	0		4.4821904296875	-0.10699130249023438	0		5.93038720703125	0.38306369018554687	0		-0.2381529541015625	5.85408251953125	0		
0.005427984237670899	-0.005503674030303955	0		0.4965217590332031	-2.40880908203125	0		-0.9873984375	0.09487438201904297	0		-0.43075802612304687	-2.98730029296875	0		1.8724918212890624	-0.25278582763671875	0		3.363824462890625	0.0856589584350586	0		4.50649267578125	-0.10859336090087891	0		5.92583740234375	0.3917609558105469	0		-0.27361837768554687	5.851427734375	0		
0.005695618152618408	-0.005624524116516113	0		0.4588088684082031	-2.399475341796875	0		-0.9930637817382812	0.09986780548095703	0		-0.43263433837890625	-2.989378662109375	0		1.8696998291015625	-0.25694345092773435	0		3.334947998046875	0.07376737976074219	0		4.4839833984375	-0.0906079330444336	0		5.92123388671875	0.40046539306640627	0		-0.12090365600585938	5.86741650390625	0		
9.722269773483277E-4	-6.902610063552856E-4	0		0.4858941345214844	-2.402958251953125	0		-0.9248015747070313	0.1029239044189453	0		-0.44646734619140627	-2.9843154296875	0		1.869904052734375	-0.25714041137695315	0		3.350163330078125	0.07332820892333984	0		4.47603125	-0.10380022430419922	0		5.93046142578125	0.40000579833984373	0		-0.2547257080078125	5.84797509765625	0		
